<svg width="28" height="28" viewBox="0 0 28 28" fill="none" xmlns="http://www.w3.org/2000/svg">
<path fill-rule="evenodd" clip-rule="evenodd" d="M19.3845 5C19.3845 5.27614 19.6083 5.5 19.8845 5.5H23.1206L19.3458 9.27482C19.1505 9.47008 19.1505 9.78666 19.3458 9.98193C19.541 10.1772 19.8576 10.1772 20.0529 9.98193L23.8277 6.20711V9.44324C23.8277 9.71938 24.0516 9.94324 24.3277 9.94324C24.6039 9.94324 24.8277 9.71938 24.8277 9.44324V5C24.8277 4.72386 24.6039 4.5 24.3277 4.5H19.8845C19.6083 4.5 19.3845 4.72386 19.3845 5ZM7.39237 5H16.7095C16.544 5.37872 16.4179 5.77859 16.3363 6.19442H7.39237C7.14188 6.19442 6.91663 6.34309 6.8236 6.56983L5.15179 10.6445C5.08741 10.8014 5.20595 10.9721 5.3793 10.9721H17.5308C17.9094 11.4355 18.3583 11.839 18.8614 12.1665H4.97019C4.83486 12.1665 4.72516 12.2735 4.72516 12.4054V19.333H23.1025V12.9974C23.5294 12.9161 23.9396 12.7879 24.3277 12.6184V22.3191C24.3277 22.9787 23.7792 23.5135 23.1025 23.5135C22.4259 23.5135 21.8774 22.9787 21.8774 22.3191V21.1247C21.8774 20.7948 21.6031 20.5274 21.2648 20.5274H6.56289C6.22458 20.5274 5.95032 20.7948 5.95032 21.1247V22.3191C5.95032 22.9787 5.40179 23.5135 4.72516 23.5135C4.04852 23.5135 3.5 22.9787 3.5 22.3191V11.7993C3.5 11.5714 3.54461 11.3456 3.63144 11.1339L5.68607 6.12623C5.96516 5.44603 6.64091 5 7.39237 5ZM9.62579 15.7498C9.62579 16.4094 9.07727 16.9442 8.40063 16.9442C7.724 16.9442 7.17547 16.4094 7.17547 15.7498C7.17547 15.0901 7.724 14.5554 8.40063 14.5554C9.07727 14.5554 9.62579 15.0901 9.62579 15.7498ZM19.4271 16.9442C20.1037 16.9442 20.6522 16.4094 20.6522 15.7498C20.6522 15.0901 20.1037 14.5554 19.4271 14.5554C18.7504 14.5554 18.2019 15.0901 18.2019 15.7498C18.2019 16.4094 18.7504 16.9442 19.4271 16.9442Z" fill="#0F0F0F"/>
</svg>
